<?xml version="1.0" standalone="no"?>
<!DOCTYPE svg PUBLIC "-//W3C//DTD SVG 20010904//EN"
 "http://www.w3.org/TR/2001/REC-SVG-20010904/DTD/svg10.dtd">
<svg version="1.0" xmlns="http://www.w3.org/2000/svg"
 width="458.000000pt" height="542.000000pt" viewBox="0 0 458.000000 542.000000"
 preserveAspectRatio="xMidYMid meet">

<g transform="translate(0.000000,542.000000) scale(0.100000,-0.100000)"
fill="#000000" stroke="none">
<path d="M1915 5398 c-20 -88 -25 -120 -20 -129 8 -11 175 -12 175 0 0 5 -7
41 -16 80 l-16 71 -59 0 c-53 0 -59 -2 -64 -22z"/>
<path d="M2176 5336 c-14 -37 -26 -70 -26 -75 0 -5 28 -14 63 -20 34 -7 72
-15 85 -18 21 -5 22 -3 22 75 l0 80 -37 7 c-21 3 -48 9 -59 11 -18 5 -25 -4
-48 -60z"/>
<path d="M2437 5271 c-21 -32 -37 -63 -37 -68 0 -6 35 -24 78 -40 89 -35 88
-37 99 68 l6 58 -35 14 c-75 31 -72 32 -111 -32z"/>
<path d="M2676 5158 c-25 -29 -46 -55 -46 -58 0 -9 119 -82 136 -84 11 -1 23
20 40 63 13 35 24 66 24 70 0 7 -87 61 -100 61 -4 0 -29 -24 -54 -52z"/>
<path d="M60 4734 l0 -466 128 4 c139 4 162 12 192 61 19 30 20 54 20 443 l0
412 -22 6 c-13 3 -89 6 -170 6 l-148 0 0 -466z"/>
<path d="M569 5175 c-15 -8 -30 -25 -33 -37 -4 -13 -11 -214 -15 -448 -8 -458
-11 -482 -63 -512 -16 -9 -80 -15 -203 -18 l-179 -5 -37 -155 c-21 -85 -38
-165 -38 -178 l-1 -22 582 2 581 3 38 169 c21 94 36 172 33 175 -3 3 -73 8
-155 11 -209 7 -194 -17 -194 299 l0 249 30 43 c17 24 46 52 65 64 34 19 49
20 565 20 523 0 531 0 615 -23 197 -54 346 -137 470 -261 82 -82 148 -166 138
-176 -2 -2 -69 -9 -149 -15 -243 -18 -392 -56 -572 -146 -362 -181 -616 -494
-724 -893 -23 -86 -26 -120 -31 -318 l-4 -223 -382 -2 -381 -3 0 -180 0 -180
432 -3 431 -2 42 -78 c76 -140 132 -215 249 -333 131 -130 260 -222 414 -294
93 -43 139 -59 272 -92 73 -19 870 -34 1340 -25 l300 5 27 28 28 27 1 329 c0
385 9 534 33 581 28 53 62 62 250 62 164 0 166 0 171 23 3 12 19 80 35 150 17
71 30 139 30 153 l0 24 -578 0 -578 0 -38 -157 c-20 -87 -36 -166 -36 -175 0
-16 13 -18 138 -18 118 0 141 -3 169 -20 17 -10 37 -29 43 -41 15 -28 8 -448
-9 -500 -13 -43 -53 -83 -105 -104 -33 -14 -93 -18 -350 -22 -428 -7 -710 7
-840 42 -220 58 -437 209 -564 392 -12 17 -22 33 -22 36 0 3 48 8 108 12 158
9 256 23 363 50 439 112 810 465 957 911 46 138 56 219 57 432 l0 192 383 0
382 0 0 185 0 185 -435 0 -435 0 -36 73 c-59 117 -153 245 -250 342 -161 160
-335 267 -574 351 l-135 48 -800 3 c-687 3 -804 1 -826 -12z m2356 -1185 c14
-23 17 -200 6 -300 -21 -179 -63 -283 -182 -460 -113 -166 -195 -240 -369
-333 -148 -79 -336 -117 -577 -117 l-142 0 -5 33 c-13 87 -14 132 -6 242 10
135 32 211 100 345 178 353 425 533 808 585 119 16 358 19 367 5z"/>
<path d="M2901 5004 l-62 -47 63 -58 c35 -32 66 -58 70 -59 8 0 78 116 78 129
0 8 -76 81 -83 81 -2 0 -31 -21 -66 -46z"/>
<path d="M3098 4814 c-46 -25 -65 -40 -60 -49 15 -25 97 -124 104 -125 8 0 98
108 98 118 0 4 -17 26 -38 49 l-37 43 -67 -36z"/>
<path d="M3245 4591 c-27 -10 -51 -24 -52 -32 -2 -8 14 -45 36 -82 l38 -68 62
51 61 52 -27 49 c-31 55 -40 57 -118 30z"/>
<path d="M2402 4570 c-24 -3 -48 -13 -53 -21 -5 -8 -9 -45 -9 -82 0 -60 2 -68
18 -63 9 2 49 10 89 16 l71 12 -18 53 c-22 64 -38 95 -48 94 -4 -1 -27 -5 -50
-9z"/>
<path d="M2128 4502 c-27 -9 -48 -20 -49 -25 -1 -4 2 -39 6 -78 7 -70 8 -71
34 -66 45 9 141 48 141 57 0 13 -71 130 -79 129 -3 0 -27 -8 -53 -17z"/>
<path d="M1868 4384 c-27 -13 -48 -27 -48 -31 0 -4 10 -37 22 -75 25 -77 18
-76 116 -22 40 23 60 39 55 47 -12 21 -88 107 -93 107 -3 -1 -26 -12 -52 -26z"/>
<path d="M1627 4223 l-46 -37 36 -66 c20 -36 38 -67 39 -69 4 -4 51 31 107 80
l38 34 -52 40 c-29 22 -59 43 -65 47 -7 5 -31 -8 -57 -29z"/>
<path d="M1453 4057 c-6 -7 -22 -28 -37 -48 l-26 -36 46 -57 c26 -31 50 -56
54 -56 9 0 110 124 110 134 0 3 -31 21 -69 41 -52 26 -71 31 -78 22z"/>
<path d="M3380 3863 c0 -21 3 -61 6 -89 l6 -51 72 17 71 16 3 61 3 61 -64 11
c-96 17 -97 17 -97 -26z"/>
<path d="M1275 3814 c-8 -13 -22 -36 -32 -51 l-16 -27 54 -48 c30 -26 57 -48
62 -48 7 0 60 79 85 127 11 20 8 23 -63 47 l-75 25 -15 -25z"/>
<path d="M3370 3568 c-17 -105 -17 -103 3 -102 9 0 44 1 77 2 66 2 68 5 73 86
2 38 1 39 -48 56 -102 35 -92 40 -105 -42z"/>
<path d="M1136 3525 c-10 -31 -16 -58 -14 -60 2 -1 32 -19 68 -39 l65 -35 27
81 c16 45 25 85 20 89 -4 4 -39 10 -78 13 l-70 7 -18 -56z"/>
<path d="M3324 3366 c-3 -8 -16 -45 -29 -83 l-23 -68 52 -8 c94 -14 107 -9
127 50 l18 53 -63 35 c-71 40 -75 40 -82 21z"/>
<path d="M1066 3273 c-13 -83 -12 -86 59 -111 35 -13 68 -21 73 -18 5 3 12 29
16 57 4 29 10 65 13 80 l6 29 -80 0 -80 0 -7 -37z"/>
<path d="M3190 3069 c-23 -39 -38 -74 -34 -79 5 -4 38 -17 73 -29 72 -23 70
-24 108 48 l18 33 -54 49 c-30 27 -58 49 -62 49 -4 0 -26 -32 -49 -71z"/>
<path d="M1096 3033 l-59 -16 6 -54 c3 -31 8 -58 11 -61 3 -2 37 -10 76 -17
l70 -12 0 88 c0 102 4 100 -104 72z"/>
<path d="M3049 2868 c-24 -29 -49 -61 -57 -70 -13 -15 -7 -20 57 -53 l72 -36
24 28 c53 61 53 67 1 128 -26 30 -49 55 -51 55 -2 0 -22 -24 -46 -52z"/>
<path d="M2850 2669 c-69 -57 -69 -56 11 -115 l49 -36 27 20 c16 11 36 29 47
40 18 21 17 22 -19 81 -20 34 -40 61 -45 61 -5 0 -36 -23 -70 -51z"/>
<path d="M2636 2526 l-78 -43 55 -59 55 -59 43 24 c24 13 47 27 52 30 7 7 -29
128 -42 143 -3 4 -41 -12 -85 -36z"/>
<path d="M4237 2489 c-44 -26 -50 -60 -55 -334 -3 -143 -1 -331 3 -418 l7
-157 167 2 166 3 3 458 2 457 -137 0 c-76 0 -146 -5 -156 -11z"/>
<path d="M2400 2424 c-41 -14 -76 -27 -78 -29 -3 -3 62 -121 73 -133 2 -2 29
4 60 14 l56 18 -6 51 c-9 75 -16 105 -23 104 -4 -1 -41 -12 -82 -25z"/>
<path d="M2128 2358 c-32 -6 -58 -14 -58 -19 0 -5 12 -38 26 -75 l27 -66 51 7
c28 4 54 9 59 12 4 2 7 38 7 79 l0 74 -27 -1 c-16 -1 -54 -6 -85 -11z"/>
<path d="M1251 2312 l-54 -48 28 -52 c18 -34 33 -51 42 -48 8 3 39 13 71 22
31 9 58 18 60 19 7 6 -73 155 -83 155 -5 0 -34 -22 -64 -48z"/>
<path d="M1392 2086 c-23 -30 -42 -60 -42 -68 1 -7 16 -30 34 -52 l33 -38 49
25 c96 49 94 45 34 120 -30 37 -56 67 -59 67 -4 0 -25 -24 -49 -54z"/>
<path d="M1567 1872 l-37 -69 28 -24 c60 -55 56 -55 121 -8 33 24 61 47 61 50
0 7 -125 119 -132 119 -2 0 -20 -31 -41 -68z"/>
<path d="M1778 1697 l-26 -74 46 -27 c26 -15 50 -28 53 -29 3 -1 29 23 58 55
l51 56 -72 46 c-39 25 -74 46 -78 46 -3 0 -18 -33 -32 -73z"/>
<path d="M2016 1598 c-4 -24 -9 -58 -12 -76 -6 -29 -3 -33 27 -46 78 -32 75
-32 119 35 22 35 37 66 33 69 -13 11 -133 60 -147 60 -8 0 -16 -18 -20 -42z"/>
<path d="M2260 1519 c0 -65 11 -117 25 -123 7 -2 32 -7 56 -11 l44 -6 22 58
c12 32 25 65 28 74 5 12 -7 18 -62 28 -37 7 -78 15 -90 18 -21 5 -23 2 -23
-38z"/>
<path d="M2520 1499 c0 -7 5 -40 12 -75 l11 -64 62 0 62 0 15 75 15 75 -88 0
c-60 0 -89 -4 -89 -11z"/>
<path d="M1515 1070 c-264 -42 -366 -175 -381 -495 -12 -237 52 -393 203 -497
87 -59 141 -72 318 -72 141 0 370 24 398 41 4 2 7 119 7 259 l0 254 -150 0
-150 0 0 -160 0 -160 -67 0 c-96 0 -141 15 -190 64 -58 59 -76 125 -71 266 3
95 7 113 33 166 24 47 39 63 75 82 41 21 57 22 245 22 l201 0 17 88 c25 128
25 128 -25 136 -78 11 -402 15 -463 6z"/>
<path d="M44 1061 c-2 -2 -4 -240 -4 -529 l0 -524 233 7 c386 12 476 41 584
193 76 105 95 172 101 343 11 340 -66 466 -305 498 -75 10 -600 20 -609 12z
m518 -254 c47 -20 73 -62 88 -144 25 -132 -8 -277 -78 -346 -45 -44 -84 -57
-174 -57 l-68 0 0 286 0 287 98 -5 c55 -3 113 -12 134 -21z"/>
<path d="M2290 541 l0 -531 366 0 367 0 -7 106 c-4 58 -10 112 -12 119 -7 17
-97 25 -281 25 l-154 0 3 88 3 87 181 3 181 2 7 106 c4 59 10 112 13 120 4 11
-30 14 -189 16 l-193 3 0 65 0 65 197 5 c108 3 199 7 201 10 7 7 31 219 26
224 -2 2 -163 7 -356 11 l-353 7 0 -531z"/>
<path d="M3165 1048 c-5 -15 -34 -222 -31 -225 1 -1 72 -5 159 -9 l157 -7 2
-396 3 -396 143 -3 142 -3 0 399 0 399 142 6 c77 4 143 8 144 10 3 3 34 211
34 229 0 4 -200 8 -445 8 -348 0 -447 -3 -450 -12z"/>
<path d="M4182 538 l3 -523 173 -3 172 -2 0 525 0 525 -175 0 -175 0 2 -522z"/>
</g>
</svg>
